<?xml version="1.0" encoding="utf-8"?>
<!-- Generator: Adobe Illustrator 16.0.0, SVG Export Plug-In . SVG Version: 6.00 Build 0)  -->
<!DOCTYPE svg PUBLIC "-//W3C//DTD SVG 1.1//EN" "http://www.w3.org/Graphics/SVG/1.1/DTD/svg11.dtd">
<svg version="1.1" id="Calque_1" xmlns="http://www.w3.org/2000/svg" xmlns:xlink="http://www.w3.org/1999/xlink" x="0px" y="0px"
	 width="364.954px" height="365.308px" viewBox="154.496 58.73 364.954 365.308"
	 enable-background="new 154.496 58.73 364.954 365.308" xml:space="preserve">
<path fill="#EEC240" d="M158.421,203.954c-4.378,20.809-5.099,41.917-2.137,62.739c0.002,0.013,0,0.019,0.002,0.032
	c2.898,20.691,9.373,40.664,19.226,59.288c1.979,3.849,3.975,7.306,5.946,10.346c5.909,9.716,12.815,18.97,20.54,27.51
	c0.009,0.009,0.013,0.017,0.017,0.024c4.369,4.799,8.697,9.097,13.223,13.125c13.127,11.752,27.911,21.497,43.956,28.973
	c3.689,1.712,7.414,3.306,11.246,4.811c3.198,1.242,6.885,1.591,9.777,2.519c10.988,3.644,21.496,9.101,34.081,6.868
	c0.027,0.01,0.051,0.016,0.078,0.024c22.099,6.812,45.888,3.598,68.444-2.397c10.875-2.808,21.609-6.508,31.46-9.583l0.006,0.002
	c0.005,0.002,0.414-1.303,0.421-1.306c0.021-0.012,0.248-0.669,0.278-0.684c0.008-0.005,0.108-0.333,0.114-0.332
	c2.243-1.037,4.551-2.294,6.765-3.47c1.029-0.544,2.147-1.22,3.168-1.895c17.313-9.538,33.627-21.41,46.728-35.723
	c12.809-13.84,21.068-30.268,32.149-46.394c0,0,0.002-0.006,0.004-0.011c3.018-9.794,7.069-19.588,9.88-29.994l1.058-6.188
	c4.154-17.718,5.387-35.694,4.127-53.313c-0.003-0.013-0.104-0.057-0.104-0.076c-0.001-0.037-0.064-0.093-0.065-0.13
	c-0.002-0.031-0.024-0.075-0.027-0.107c-0.004-0.007-0.018-0.023-0.021-0.03c-0.215-4.197-0.666-8.583-1.377-13.396
	c-2.423-16.782-7.194-33.139-14.284-48.87c-0.239-0.556-0.488-1.098-0.77-1.631c-1.205-2.851-2.622-5.824-4.209-8.825
	c-7.539-14.258-16.922-27.452-28.037-39.366c-0.51-0.548-1.024-1.079-1.544-1.594c-0.019-0.018-0.034-0.047-0.053-0.065
	c-18.049-18.916-40.624-33.958-65.229-43.484c-3.993-1.574-8.098-3.01-12.255-4.291c-2.081-0.642-4.182-1.241-6.28-1.808
	c-0.022-0.007-0.047-0.009-0.071-0.01c-19.655-5.398-39.839-7.458-59.996-6.112c-3.094,0.201-6.197,0.479-9.344,0.853
	c-0.306,0.041-0.609,0.094-0.905,0.162c-19.209,2.328-37.89,7.765-55.536,16.167c-0.28,0.115-0.572,0.269-0.854,0.409
	c-1.922,0.807-3.882,1.791-5.585,2.739l0.322,0.637c-28.17,14.849-53.231,36.424-67.792,63.84c-0.002,0.005-0.002,0.005-0.004,0.011
	c-0.001,0.006,0.544-1.764,0.544-1.764l-0.971-0.299l-0.485-0.149c-3.339,5.082-7.075,11.789-9.751,17.244
	c-0.048,0.095-0.349,0.595-0.392,0.693c-6.301,12.571-11.256,26.251-14.429,40.05C159.129,201.025,158.705,202.618,158.421,203.954
	L158.421,203.954z M191.033,317.905c-8.203-15.514-13.674-32.019-16.562-49.059l48.94-42.526l47.898,9.802l29.333,60.756
	l-18.817,40.133l-72.764,6.383c-0.363,0.028-0.681,0.188-1.032,0.257c-4.189-5.3-8.186-10.773-11.734-16.608
	C194.497,324.271,192.788,321.313,191.033,317.905L191.033,317.905z M445.327,200.675l56.103,33.639
	c0.646,14.498-0.644,29.194-4.044,43.691l-1.418,5.771c-2.068,7.643-4.768,15.029-7.813,22.175l-61.961,5.454l-30.519-28.166
	l11.83-65.3L445.327,200.675L445.327,200.675z M378.518,400.436c-18.835,5.005-38.179,6.521-57.569,4.626l-24.598-57.78
	l19.866-42.37l67.22-9.125l30.761,28.388l-15.821,68.891c-0.062,0.263-0.014,0.521-0.052,0.785
	C391.818,396.481,385.197,398.712,378.518,400.436z M452.524,123.663l-13.953,60.832l-37.913,17.296l-60.089-32.362l-2.597-40.084
	l51.104-44.506c2.633,0.873,5.247,1.808,7.814,2.819C418.009,95.841,436.682,107.977,452.524,123.663z M257.422,96.732l63.35,37.98
	l2.395,36.998l-49.228,47.063l-48.093-9.844l-25.504-59.955C214.813,127.343,234.406,109.393,257.422,96.732L257.422,96.732z"/>
</svg>
