<?xml version="1.0" encoding="utf-8"?>
<!-- Generator: Adobe Illustrator 16.0.0, SVG Export Plug-In . SVG Version: 6.00 Build 0)  -->
<!DOCTYPE svg PUBLIC "-//W3C//DTD SVG 1.1//EN" "http://www.w3.org/Graphics/SVG/1.1/DTD/svg11.dtd">
<svg version="1.1" id="Capa_1" xmlns="http://www.w3.org/2000/svg" xmlns:xlink="http://www.w3.org/1999/xlink" x="0px" y="0px"
	 width="512px" height="512px" viewBox="0 0 512 512" enable-background="new 0 0 512 512" xml:space="preserve">
<g>
	<g id="_x33_6_24_">
		<g>
			<path fill="#91DC5A" d="M300.858,147.651c22.67,0,41.051-18.381,41.051-41.054c0-22.672-18.381-41.052-41.051-41.052
				c-22.676,0-41.059,18.381-41.059,41.052C259.797,129.27,278.18,147.651,300.858,147.651z"/>
			<path fill="#91DC5A" d="M368.385,135.829c-23.572,33.019-55.139,36.843-89.105,16.678c-2.313-1.371-12.57-7.023-14.842-8.373
				c-54.643-32.438-109.221-19.718-145.823,31.54c-15.554,21.801,20.419,42.465,35.799,20.918
				c18.91-26.483,42.957-34.146,69.258-25.758c-13.467,23.375-25.24,46.607-41.852,79.614
				c-16.617,33.008-53.306,59.367-88.559,38.751c-25.437-14.867-48.375,21.675-23.015,36.496
				c48.128,28.128,104.558,10.855,133.367-25.707c0.998,0.533,2.055,1.016,3.213,1.421c23.535,8.199,54.385,30.028,63.783,37.765
				s25.543,47.148,35.131,66.951c11.633,24.028,49.195,6.527,37.521-17.603c-10.869-22.468-29.111-67.309-43.34-78.653
				c-11.416-9.1-33.574-26.033-52.369-35.641c12.715-24.629,25.955-48.993,39.893-72.937c44.426,13.612,86.654-2.422,116.729-44.551
				C419.74,134.944,383.776,114.28,368.385,135.829z"/>
		</g>
	</g>
</g>
</svg>
