<?xml version="1.0" encoding="utf-8"?>
<!-- Generator: Adobe Illustrator 16.0.0, SVG Export Plug-In . SVG Version: 6.00 Build 0)  -->
<!DOCTYPE svg PUBLIC "-//W3C//DTD SVG 1.1//EN" "http://www.w3.org/Graphics/SVG/1.1/DTD/svg11.dtd">
<svg version="1.1" id="Layer_1" xmlns="http://www.w3.org/2000/svg" xmlns:xlink="http://www.w3.org/1999/xlink" x="0px" y="0px"
	 width="469.215px" height="477.861px" viewBox="42.785 17.069 469.215 477.861"
	 enable-background="new 42.785 17.069 469.215 477.861" xml:space="preserve">
<g>
	<g>
		<path fill="#EEC240" d="M435.199,375.463H384c-4.711,0-8.533,3.823-8.533,8.533s3.822,8.533,8.533,8.533h51.199
			c31.13,0,55.202,21.494,59.11,51.2H353.399L80.333,170.663l128.81-128.81c7.074,22.46,23.33,66.15,49.357,92.177
			c29.158,29.167,79.761,35.115,99.899,36.326v68.574h-20.146c-2.962-5.077-8.405-8.533-14.694-8.533
			c-9.412,0-17.067,7.654-17.067,17.067c0,9.412,7.654,17.067,17.067,17.067c6.289,0,11.732-3.456,14.694-8.533H358.4v51.2h-20.146
			c-2.962-5.077-8.405-8.533-14.694-8.533c-9.412,0-17.067,7.653-17.067,17.067c0,9.412,7.654,17.066,17.067,17.066
			c6.289,0,11.732-3.456,14.694-8.533H358.4v8.533c0,2.262,0.896,4.438,2.5,6.033l17.067,17.066c3.337,3.338,8.729,3.338,12.065,0
			c3.337-3.336,3.337-8.729,0-12.065l-14.565-14.565V162.13c0-4.71-3.823-8.533-8.533-8.533c-0.649,0-65.092-0.358-96.367-31.633
			c-32.033-32.034-48.794-97.783-48.956-98.441c-0.751-2.978-3.038-5.333-5.999-6.153c-2.978-0.802-6.144,0.026-8.311,2.193
			L62.242,164.622c0,0-0.01,0-0.01,0.009c-0.008,0-0.008,0.009-0.008,0.009l-11.657,11.665
			c-10.641,10.633-10.324,29.602,0.666,40.593l266.999,267c1.126,1.126,11.503,11.033,27.769,11.033H486.4
			c14.354,0,25.601-11.247,25.601-25.6v-17.067C512,409.195,478.268,375.463,435.199,375.463z M494.933,469.33
			c0,4.864-3.669,8.533-8.533,8.533H346.001c-9.311,0-15.693-6.033-15.701-6.033l-266.999-267
			c-4.403-4.403-4.727-12.407-0.666-16.461l5.632-5.641l275.567,275.567c1.596,1.604,3.771,2.5,6.032,2.5h145.067L494.933,469.33
			L494.933,469.33z"/>
		<path fill="#EEC240" d="M273.067,230.397v102.4c0,4.71,3.823,8.533,8.533,8.533s8.533-3.823,8.533-8.533v-102.4
			c0-4.71-3.823-8.533-8.533-8.533S273.067,225.686,273.067,230.397z"/>
		<path fill="#EEC240" d="M332.715,202.971c4.173,0,7.824-3.063,8.431-7.322c0.674-4.659-2.569-8.986-7.236-9.66
			c-56.977-8.183-105.634-44.305-130.149-96.614c-1.997-4.267-7.066-6.093-11.349-4.105c-4.268,2.005-6.102,7.083-4.105,11.349
			c26.965,57.532,80.495,97.263,143.181,106.266C331.904,202.945,332.305,202.971,332.715,202.971z"/>
	</g>
</g>
</svg>
