<?xml version="1.0" encoding="utf-8"?>
<!-- Generator: Adobe Illustrator 16.0.0, SVG Export Plug-In . SVG Version: 6.00 Build 0)  -->
<!DOCTYPE svg PUBLIC "-//W3C//DTD SVG 1.1//EN" "http://www.w3.org/Graphics/SVG/1.1/DTD/svg11.dtd">
<svg version="1.1" id="Calque_1" xmlns="http://www.w3.org/2000/svg" xmlns:xlink="http://www.w3.org/1999/xlink" x="0px" y="0px"
	 width="569.897px" height="385.94px" viewBox="-50.448 58.73 569.897 385.94"
	 enable-background="new -50.448 58.73 569.897 385.94" xml:space="preserve">
<g>
	<path fill="#EEC240" d="M178.579,401.331c-2.143-0.66-4.537-0.506-6.676,0.625l-49.57,26.212
		c-4.275,2.257-5.913,7.563-3.648,11.836c2.263,4.277,7.559,5.91,11.837,3.648l49.568-26.212c4.276-2.257,5.912-7.563,3.648-11.836
		C182.613,403.467,180.721,401.991,178.579,401.331L178.579,401.331z"/>
	<path fill="#EEC240" d="M154.329,349.977c-1.131-2.14-3.021-3.614-5.166-4.274c-2.143-0.661-4.537-0.507-6.675,0.624l-55.922,29.57
		c-4.276,2.257-5.911,7.559-3.648,11.836s7.559,5.911,11.836,3.647l55.921-29.569C154.957,359.556,156.591,354.255,154.329,349.977
		L154.329,349.977z"/>
	<path fill="#EEC240" d="M66.303,389.517c-2.145-0.66-4.538-0.507-6.678,0.625l-24.164,12.776
		c-4.275,2.257-5.912,7.563-3.647,11.837c2.262,4.277,7.557,5.91,11.836,3.647l24.164-12.777c4.275-2.257,5.913-7.563,3.648-11.836
		C70.33,391.656,68.44,390.175,66.303,389.517L66.303,389.517z"/>
	<path fill="#EEC240" d="M-49.429,386.536c2.263,4.278,7.558,5.91,11.835,3.647l158.859-84.001
		c4.275-2.258,5.911-7.563,3.647-11.835c-1.131-2.141-3.021-3.614-5.165-4.275c-2.143-0.661-4.538-0.506-6.676,0.624
		l-158.858,84.001C-50.059,376.962-51.693,382.264-49.429,386.536L-49.429,386.536z"/>
	<path fill="#EEC240" d="M158.421,203.954c-4.378,20.81-5.099,41.917-2.137,62.739c0.002,0.013,0,0.019,0.002,0.032
		c2.898,20.69,9.373,40.664,19.227,59.288c1.979,3.849,3.975,7.306,5.945,10.346c5.909,9.716,12.815,18.97,20.54,27.51
		c0.009,0.009,0.014,0.018,0.018,0.024c4.368,4.799,8.696,9.097,13.223,13.125c13.127,11.752,27.911,21.497,43.956,28.973
		c3.688,1.712,7.414,3.306,11.246,4.811c3.198,1.242,6.885,1.592,9.776,2.52c10.988,3.644,21.497,9.101,34.082,6.868
		c0.026,0.01,0.051,0.016,0.078,0.023c22.099,6.813,45.888,3.598,68.443-2.396c10.875-2.809,21.609-6.508,31.46-9.583l0.006,0.002
		c0.006,0.002,0.414-1.303,0.421-1.306c0.021-0.013,0.248-0.67,0.278-0.685c0.008-0.005,0.108-0.333,0.114-0.332
		c2.243-1.037,4.551-2.294,6.765-3.47c1.029-0.544,2.147-1.22,3.168-1.896c17.313-9.537,33.627-21.409,46.729-35.723
		c12.809-13.84,21.067-30.268,32.148-46.394c0,0,0.002-0.007,0.004-0.012c3.019-9.794,7.069-19.588,9.881-29.994l1.058-6.188
		c4.154-17.718,5.387-35.694,4.127-53.313c-0.003-0.013-0.104-0.057-0.104-0.075c0-0.037-0.063-0.094-0.064-0.13
		c-0.002-0.031-0.024-0.075-0.027-0.107c-0.004-0.007-0.018-0.023-0.021-0.03c-0.215-4.196-0.666-8.583-1.377-13.396
		c-2.423-16.782-7.194-33.14-14.284-48.87c-0.239-0.556-0.488-1.098-0.771-1.631c-1.204-2.852-2.621-5.824-4.209-8.825
		c-7.538-14.258-16.922-27.452-28.036-39.366c-0.511-0.548-1.024-1.079-1.545-1.594c-0.019-0.019-0.033-0.047-0.053-0.065
		c-18.049-18.916-40.624-33.958-65.229-43.483c-3.993-1.574-8.099-3.011-12.255-4.291c-2.081-0.643-4.183-1.241-6.28-1.809
		c-0.022-0.007-0.047-0.009-0.071-0.01c-19.655-5.397-39.839-7.458-59.996-6.112c-3.094,0.201-6.196,0.479-9.344,0.854
		c-0.306,0.041-0.609,0.094-0.905,0.162c-19.209,2.328-37.89,7.765-55.536,16.167c-0.28,0.115-0.572,0.269-0.854,0.409
		c-1.922,0.807-3.883,1.791-5.585,2.738l0.321,0.638c-28.17,14.849-53.23,36.424-67.792,63.84c-0.002,0.005-0.002,0.005-0.004,0.011
		c-0.001,0.006,0.544-1.764,0.544-1.764l-0.971-0.299l-0.485-0.149c-3.339,5.082-7.074,11.789-9.751,17.244
		c-0.048,0.095-0.349,0.595-0.392,0.692c-6.301,12.571-11.256,26.251-14.429,40.051
		C159.129,201.025,158.705,202.618,158.421,203.954L158.421,203.954z M191.033,317.905c-8.203-15.514-13.674-32.02-16.562-49.059
		l48.939-42.526l47.898,9.802l29.333,60.756l-18.817,40.134l-72.764,6.383c-0.363,0.027-0.682,0.188-1.032,0.257
		c-4.189-5.3-8.186-10.773-11.734-16.608C194.497,324.271,192.788,321.313,191.033,317.905L191.033,317.905z M445.327,200.675
		l56.104,33.64c0.646,14.498-0.645,29.193-4.044,43.69l-1.418,5.771c-2.068,7.643-4.769,15.029-7.813,22.175l-61.961,5.454
		l-30.519-28.166l11.83-65.3L445.327,200.675L445.327,200.675z M378.518,400.436c-18.835,5.005-38.179,6.521-57.569,4.626
		l-24.598-57.78l19.866-42.37l67.22-9.125l30.761,28.388l-15.82,68.892c-0.063,0.263-0.015,0.521-0.053,0.785
		C391.818,396.481,385.197,398.712,378.518,400.436z M452.524,123.663l-13.953,60.832l-37.913,17.296l-60.089-32.361l-2.597-40.085
		l51.104-44.506c2.634,0.873,5.247,1.809,7.814,2.819C418.01,95.841,436.682,107.977,452.524,123.663z M257.422,96.732
		l63.351,37.979l2.395,36.998l-49.228,47.063l-48.093-9.844l-25.505-59.955C214.813,127.343,234.406,109.393,257.422,96.732
		L257.422,96.732z"/>
</g>
</svg>
