<?xml version="1.0" encoding="utf-8"?>
<!-- Generator: Adobe Illustrator 16.0.0, SVG Export Plug-In . SVG Version: 6.00 Build 0)  -->
<!DOCTYPE svg PUBLIC "-//W3C//DTD SVG 1.1//EN" "http://www.w3.org/Graphics/SVG/1.1/DTD/svg11.dtd">
<svg version="1.1" id="Layer_1" xmlns="http://www.w3.org/2000/svg" xmlns:xlink="http://www.w3.org/1999/xlink" x="0px" y="0px"
	 width="856.166px" height="477.861px" viewBox="0 17.069 856.166 477.861" enable-background="new 0 17.069 856.166 477.861"
	 xml:space="preserve">
<g>
	<g>
		<g>
			<path fill="#EEC240" d="M196.267,409.598h-153.6c-4.71,0-8.533,3.822-8.533,8.532s3.823,8.533,8.533,8.533h153.6
				c4.71,0,8.533-3.823,8.533-8.533S200.977,409.598,196.267,409.598z"/>
			<path fill="#EEC240" d="M25.6,324.264h68.268c4.71,0,8.532-3.824,8.532-8.533c0-4.711-3.822-8.533-8.532-8.533H25.6
				c-4.71,0-8.533,3.822-8.533,8.533C17.067,320.439,20.89,324.264,25.6,324.264z"/>
			<path fill="#EEC240" d="M153.6,366.93c0-4.709-3.823-8.533-8.533-8.533H8.533c-4.71,0-8.533,3.824-8.533,8.533
				c0,4.711,3.823,8.533,8.533,8.533h136.532C149.777,375.463,153.6,371.641,153.6,366.93z"/>
			<path fill="#EEC240" d="M435.199,375.463H384c-4.711,0-8.533,3.823-8.533,8.533s3.822,8.533,8.533,8.533h51.199
				c31.13,0,55.202,21.494,59.11,51.2H353.399L80.333,170.663l128.81-128.81c7.074,22.46,23.33,66.15,49.357,92.177
				c29.158,29.167,79.761,35.115,99.899,36.326v68.574h-20.146c-2.962-5.077-8.405-8.533-14.694-8.533
				c-9.412,0-17.067,7.654-17.067,17.067c0,9.412,7.654,17.067,17.067,17.067c6.289,0,11.732-3.456,14.694-8.533H358.4v51.2h-20.146
				c-2.962-5.077-8.405-8.533-14.694-8.533c-9.412,0-17.067,7.653-17.067,17.067c0,9.412,7.654,17.066,17.067,17.066
				c6.289,0,11.732-3.456,14.694-8.533H358.4v8.533c0,2.262,0.896,4.438,2.5,6.033l17.067,17.066c3.337,3.338,8.729,3.338,12.065,0
				c3.337-3.336,3.337-8.729,0-12.065l-14.565-14.565V162.13c0-4.71-3.823-8.533-8.533-8.533c-0.649,0-65.092-0.358-96.367-31.633
				c-32.033-32.034-48.794-97.783-48.956-98.441c-0.751-2.978-3.038-5.333-5.999-6.153c-2.978-0.802-6.144,0.026-8.311,2.193
				L62.242,164.622c0,0-0.01,0-0.01,0.009c-0.008,0-0.008,0.009-0.008,0.009l-11.657,11.665
				c-10.641,10.633-10.324,29.602,0.666,40.593l266.999,267c1.126,1.126,11.503,11.033,27.769,11.033H486.4
				c14.354,0,25.601-11.247,25.601-25.6v-17.067C512,409.195,478.268,375.463,435.199,375.463z M494.933,469.33
				c0,4.864-3.669,8.533-8.533,8.533H346.001c-9.311,0-15.693-6.033-15.701-6.033l-266.999-267
				c-4.403-4.403-4.727-12.407-0.666-16.461l5.632-5.641l275.567,275.567c1.596,1.604,3.771,2.5,6.032,2.5h145.067L494.933,469.33
				L494.933,469.33z"/>
			<path fill="#EEC240" d="M273.067,230.397v102.4c0,4.71,3.823,8.533,8.533,8.533s8.533-3.823,8.533-8.533v-102.4
				c0-4.71-3.823-8.533-8.533-8.533S273.067,225.686,273.067,230.397z"/>
			<path fill="#EEC240" d="M332.715,202.971c4.173,0,7.824-3.063,8.431-7.322c0.674-4.659-2.569-8.986-7.236-9.66
				c-56.977-8.183-105.634-44.305-130.149-96.614c-1.997-4.267-7.066-6.093-11.349-4.105c-4.268,2.005-6.102,7.083-4.105,11.349
				c26.965,57.532,80.495,97.263,143.181,106.266C331.904,202.945,332.305,202.971,332.715,202.971z"/>
		</g>
	</g>
</g>
<g>
	<path fill="#EEC240" d="M494.265,247.432c4.62,20.755,12.695,40.273,24.004,58.004c0.008,0.012,0.008,0.018,0.016,0.027
		c11.196,17.642,25.353,33.147,42.027,46.029c3.394,2.686,6.64,5.007,9.691,6.96c9.399,6.401,19.514,11.97,30.079,16.551
		c0.013,0.005,0.019,0.009,0.025,0.015c5.964,2.563,11.68,4.685,17.468,6.48c16.813,5.27,34.303,8.027,52.004,8.197
		c4.066,0.032,8.117-0.058,12.229-0.271c3.425-0.192,6.926-1.4,9.943-1.752c11.512-1.227,23.335-0.605,33.871-7.841
		c0.028-0.005,0.051-0.008,0.081-0.011c22.937-2.939,43.266-15.705,61.324-30.493c8.739-7.054,16.98-14.862,24.678-21.737h0.006
		c0.006-0.001-0.162-1.355-0.156-1.363c0.015-0.019-0.05-0.711-0.03-0.738c0.005-0.006-0.038-0.346-0.032-0.348
		c1.613-1.875,3.193-3.973,4.724-5.958c0.711-0.921,1.45-1.998,2.1-3.036c11.817-15.844,21.761-33.4,27.77-51.85
		c5.938-17.899,6.662-36.271,10.081-55.536c0,0,0-0.006-0.003-0.012c-1.301-10.165-1.663-20.758-3.408-31.396l-1.597-6.071
		c-3.546-17.85-9.86-34.726-18.295-50.247c-0.008-0.011-0.119-0.008-0.126-0.025c-0.017-0.033-0.097-0.058-0.113-0.092
		c-0.015-0.028-0.055-0.059-0.069-0.085c-0.007-0.005-0.025-0.015-0.031-0.02c-1.932-3.732-4.156-7.539-6.794-11.628
		c-9.147-14.276-20.257-27.194-33.22-38.585c-0.447-0.407-0.897-0.797-1.374-1.167c-2.276-2.098-4.798-4.218-7.482-6.293
		c-12.762-9.864-26.762-17.995-41.809-24.245c-0.691-0.289-1.379-0.559-2.065-0.813c-0.023-0.009-0.051-0.029-0.075-0.038
		c-24.257-9.756-51.032-14.114-77.372-12.612c-4.287,0.22-8.618,0.609-12.933,1.163c-2.16,0.277-4.32,0.6-6.466,0.952
		c-0.023,0.003-0.046,0.011-0.068,0.021c-20.129,3.215-39.356,9.687-57.153,19.25c-2.732,1.462-5.444,3-8.154,4.642
		c-0.262,0.163-0.516,0.336-0.757,0.521c-16.525,10.065-31.285,22.741-43.875,37.689c-0.209,0.221-0.411,0.482-0.608,0.727
		c-1.418,1.529-2.794,3.236-3.953,4.804l0.558,0.446c-19.506,25.171-33.398,55.18-35.317,86.163c0,0.006,0,0.006,0.001,0.012
		c0.001,0.005-0.234-1.831-0.234-1.831l-1.007,0.128l-0.504,0.065c-0.938,6.007-1.564,13.659-1.746,19.733
		c-0.004,0.107-0.071,0.687-0.069,0.793c-0.537,14.051,0.609,28.557,3.429,42.432C493.698,244.472,493.971,246.098,494.265,247.432
		L494.265,247.432z M571.087,337.689c-13.884-10.731-25.692-23.494-35.369-37.815l26.969-58.959l47.664-10.888l51.834,43.183
		l-0.531,44.323l-63.609,35.908c-0.319,0.175-0.542,0.451-0.834,0.658c-6.006-3.092-11.909-6.421-17.552-10.267
		C576.875,342.052,574.094,340.065,571.087,337.689L571.087,337.689z M754.124,125.778l64.991,7.422
		c6.584,12.932,11.488,26.846,14.39,41.45l1.095,5.841c1.278,7.814,1.876,15.656,2.059,23.421l-54.157,30.593l-39.435-13.021
		l-16.239-64.345L754.124,125.778L754.124,125.778z M775.919,335.285c-15.078,12.346-32.062,21.727-50.5,28.022l-46.294-42.433
		l0.562-46.793l57.427-36.111l39.747,13.123l14.091,69.264c0.053,0.265,0.202,0.481,0.277,0.737
		C786.393,326.183,781.287,330.952,775.919,335.285z M728.823,52.686l12.456,61.156l-27.362,31.428l-68.095-4.61l-18.943-35.421
		l28.119-61.657c2.758-0.294,5.524-0.524,8.279-0.666C685.89,41.63,707.909,44.957,728.823,52.686z M540.052,108.862l73.387,8.377
		l17.48,32.695l-25.352,63.21l-47.859,10.929l-48.018-44.038C513.92,154.357,524.333,129.909,540.052,108.862L540.052,108.862z"/>
</g>
</svg>
